<svg width="28" height="26" viewBox="0 0 28 26" fill="none" xmlns="http://www.w3.org/2000/svg">
<path d="M17.2407 23.9665L17.2538 23.9753C18.387 24.6625 19.7325 24.9609 21.0679 24.8212C22.4034 24.6815 23.6488 24.1121 24.5984 23.2071L25.4233 22.4214C25.6062 22.2474 25.7512 22.0408 25.8501 21.8134C25.9491 21.586 26 21.3423 26 21.0961C26 20.85 25.9491 20.6063 25.8501 20.3789C25.7512 20.1515 25.6062 19.9449 25.4233 19.7709L21.9439 16.4596C21.7612 16.2854 21.5442 16.1473 21.3055 16.0531C21.0667 15.9589 20.8108 15.9104 20.5523 15.9104C20.2939 15.9104 20.0379 15.9589 19.7992 16.0531C19.5604 16.1473 19.3435 16.2854 19.1608 16.4596C18.7919 16.8108 18.2916 17.0081 17.7699 17.0081C17.2482 17.0081 16.7479 16.8108 16.379 16.4596L10.8155 11.1597C10.4467 10.8084 10.2395 10.3319 10.2395 9.83507C10.2395 9.33825 10.4467 8.86178 10.8155 8.51042C10.9983 8.33642 11.1433 8.12982 11.2423 7.90243C11.3412 7.67503 11.3922 7.4313 11.3922 7.18515C11.3922 6.939 11.3412 6.69527 11.2423 6.46787C11.1433 6.24047 10.9983 6.03387 10.8155 5.85988L7.33732 2.54857C6.9684 2.19732 6.4681 2 5.94644 2C5.42479 2 4.92449 2.19732 4.55556 2.54857L3.7293 3.33424C2.77921 4.2388 2.18159 5.42498 2.03517 6.6968C1.88875 7.96862 2.2023 9.24995 2.92402 10.3291L2.93189 10.3416C6.74344 15.7123 11.6007 20.3375 17.2407 23.9665V23.9665Z" stroke="white" stroke-width="2.11926" stroke-linecap="round" stroke-linejoin="round"/>
</svg>
