<svg width="28" height="22" viewBox="0 0 28 22" fill="none" xmlns="http://www.w3.org/2000/svg">
<path d="M26 4.99799V16.998C26 17.7936 25.6839 18.5567 25.1213 19.1193C24.5587 19.6819 23.7956 19.998 23 19.998H5C4.20435 19.998 3.44129 19.6819 2.87868 19.1193C2.31607 18.5567 2 17.7936 2 16.998V4.99799" stroke="white" stroke-width="2.09454" stroke-linecap="round" stroke-linejoin="round"/>
<path d="M26 5C26 4.20435 25.6839 3.44129 25.1213 2.87868C24.5587 2.31607 23.7956 2 23 2H5.00003C4.20438 2 3.44132 2.31607 2.87871 2.87868C2.3161 3.44129 2.00003 4.20435 2.00003 5L12.41 11.5C12.8868 11.798 13.4378 11.956 14 11.956C14.5623 11.956 15.1132 11.798 15.59 11.5L26 5Z" stroke="white" stroke-width="2.09454" stroke-linecap="round" stroke-linejoin="round"/>
</svg>
