<svg width="48" height="48" viewBox="0 0 48 48" fill="none" xmlns="http://www.w3.org/2000/svg">
<g clip-path="url(#clip0_26_2)">
<mask id="mask0_26_2" style="mask-type:luminance" maskUnits="userSpaceOnUse" x="0" y="0" width="48" height="48">
<path d="M-1.14441e-05 7.62939e-06H48V48H-1.14441e-05V7.62939e-06Z" fill="white"/>
</mask>
<g mask="url(#mask0_26_2)">
<path d="M38.9034 4.2141H46.5913V11.902" stroke="#2B256D" stroke-width="2.8125" stroke-miterlimit="10"/>
<path d="M9.09366 4.2141H1.40579V11.902" stroke="#2B256D" stroke-width="2.8125" stroke-miterlimit="10"/>
<path d="M38.9034 43.7742H46.5913V36.0863" stroke="#2B256D" stroke-width="2.8125" stroke-miterlimit="10"/>
<path d="M9.09366 43.7742H1.40579V36.0863" stroke="#2B256D" stroke-width="2.8125" stroke-miterlimit="10"/>
<path d="M43.6796 23.9996C30.5605 38.3273 17.4413 38.3273 4.32224 23.9996C17.4413 9.67202 30.5605 9.67202 43.6796 23.9996Z" stroke="#2B256D" stroke-width="2.8125" stroke-miterlimit="10"/>
<path d="M34.7449 23.9996C34.7449 29.934 29.9341 34.7448 23.9998 34.7448C18.0655 34.7448 13.2547 29.934 13.2547 23.9996C13.2547 18.0652 18.0655 13.2544 23.9998 13.2544C29.9341 13.2544 34.7449 18.0652 34.7449 23.9996Z" stroke="#2B256D" stroke-width="2.8125" stroke-miterlimit="10"/>
<path d="M27.143 23.9997C27.143 25.7357 25.7357 27.1429 23.9998 27.1429C22.2639 27.1429 20.8566 25.7357 20.8566 23.9997C20.8566 22.2637 22.2639 20.8564 23.9998 20.8564C25.7357 20.8564 27.143 22.2637 27.143 23.9997Z" stroke="#2B256D" stroke-width="2.8125" stroke-miterlimit="10"/>
</g>
</g>
<defs>
<clipPath id="clip0_26_2">
<rect width="48" height="48" fill="white"/>
</clipPath>
</defs>
</svg>
