<svg width="16" height="16" viewBox="0 0 16 16" fill="none" xmlns="http://www.w3.org/2000/svg">
<g clip-path="url(#clip0_16_34)">
<path d="M15.1852 5.03363C15.1515 4.2685 15.0277 3.74248 14.8505 3.28668C14.6676 2.80286 14.3863 2.36969 14.0178 2.0096C13.6577 1.6439 13.2217 1.35974 12.7435 1.17975C12.285 1.00251 11.7617 0.878775 10.9966 0.845041C10.2258 0.808449 9.98106 0.799988 8.02599 0.799988C6.07092 0.799988 5.82621 0.808449 5.05822 0.842184C4.2931 0.875918 3.76708 0.999758 3.31139 1.17689C2.82745 1.35974 2.39429 1.64105 2.0342 2.0096C1.6685 2.36969 1.38445 2.80571 1.20435 3.28393C1.0271 3.74248 0.903372 4.26564 0.869638 5.03077C0.833046 5.80161 0.824585 6.04632 0.824585 8.00139C0.824585 9.95646 0.833046 10.2012 0.866781 10.9692C0.900515 11.7343 1.02436 12.2603 1.2016 12.7161C1.38445 13.1999 1.6685 13.6331 2.0342 13.9932C2.39429 14.3589 2.83031 14.643 3.30853 14.823C3.76708 15.0003 4.29024 15.124 5.05548 15.1577C5.82335 15.1916 6.06817 15.1999 8.02324 15.1999C9.97831 15.1999 10.223 15.1916 10.991 15.1577C11.7561 15.124 12.2822 15.0003 12.7378 14.823C13.7056 14.4489 14.4707 13.6838 14.8449 12.7161C15.022 12.2576 15.1459 11.7343 15.1796 10.9692C15.2133 10.2012 15.2218 9.95646 15.2218 8.00139C15.2218 6.04632 15.2189 5.80161 15.1852 5.03363ZM13.8885 10.9129C13.8575 11.6162 13.7393 11.9959 13.6409 12.2491C13.3989 12.8764 12.901 13.3743 12.2737 13.6163C12.0205 13.7147 11.638 13.8329 10.9375 13.8637C10.178 13.8976 9.95018 13.9059 8.02885 13.9059C6.10751 13.9059 5.87687 13.8976 5.12009 13.8637C4.41683 13.8329 4.03707 13.7147 3.78389 13.6163C3.47171 13.5009 3.18755 13.3181 2.9569 13.0789C2.71779 12.8454 2.53494 12.5641 2.41956 12.252C2.32111 11.9988 2.20298 11.6162 2.1721 10.9158C2.13826 10.1562 2.12991 9.92833 2.12991 8.007C2.12991 6.08566 2.13826 5.85502 2.1721 5.09835C2.20298 4.39509 2.32111 4.01533 2.41956 3.76215C2.53494 3.44986 2.71779 3.16581 2.95976 2.93505C3.19315 2.69594 3.47446 2.51309 3.78675 2.39782C4.03992 2.29937 4.42254 2.18124 5.12295 2.15025C5.88247 2.11652 6.11037 2.10806 8.0316 2.10806C9.95579 2.10806 10.1836 2.11652 10.9404 2.15025C11.6436 2.18124 12.0234 2.29937 12.2766 2.39782C12.5887 2.51309 12.8729 2.69594 13.1035 2.93505C13.3427 3.16855 13.5255 3.44986 13.6409 3.76215C13.7393 4.01533 13.8575 4.39783 13.8885 5.09835C13.9222 5.85787 13.9306 6.08566 13.9306 8.007C13.9306 9.92833 13.9222 10.1534 13.8885 10.9129Z" fill="white"/>
<path d="M8.02533 4.30243C5.98312 4.30243 4.32617 5.95927 4.32617 8.00159C4.32617 10.0439 5.98312 11.7007 8.02533 11.7007C10.0676 11.7007 11.7245 10.0439 11.7245 8.00159C11.7245 5.95927 10.0676 4.30243 8.02533 4.30243ZM8.02533 10.4011C6.70045 10.4011 5.62578 9.32658 5.62578 8.00159C5.62578 6.6766 6.70045 5.60204 8.02533 5.60204C9.35032 5.60204 10.4249 6.6766 10.4249 8.00159C10.4249 9.32658 9.35032 10.4011 8.02533 10.4011Z" fill="white"/>
<path d="M12.7366 4.15619C12.7366 4.63309 12.35 5.01977 11.873 5.01977C11.3961 5.01977 11.0094 4.63309 11.0094 4.15619C11.0094 3.67918 11.3961 3.2926 11.873 3.2926C12.35 3.2926 12.7366 3.67918 12.7366 4.15619Z" fill="white"/>
</g>
<defs>
<clipPath id="clip0_16_34">
<rect width="14.4" height="14.4" fill="white" transform="translate(0.799988 0.799988)"/>
</clipPath>
</defs>
</svg>
