<svg width="16" height="16" viewBox="0 0 16 16" fill="none" xmlns="http://www.w3.org/2000/svg">
<g clip-path="url(#clip0_16_27)">
<path d="M15.1972 15.2004L15.2008 15.1999V9.91865C15.2008 7.33505 14.6446 5.34485 11.6242 5.34485C10.1722 5.34485 9.19776 6.14165 8.79996 6.89705H8.75797V5.58605H5.89417V15.1999H8.87616V10.4394C8.87616 9.18605 9.11376 7.97405 10.666 7.97405C12.1954 7.97405 12.2182 9.40445 12.2182 10.5198V15.2004H15.1972Z" fill="white"/>
<path d="M1.03732 5.58655H4.02292V15.2003H1.03732V5.58655Z" fill="white"/>
<path d="M2.52922 0.800049C1.57462 0.800049 0.800018 1.57465 0.800018 2.52925C0.800018 3.48385 1.57462 4.27465 2.52922 4.27465C3.48382 4.27465 4.25842 3.48385 4.25842 2.52925C4.25782 1.57465 3.48322 0.800049 2.52922 0.800049Z" fill="white"/>
</g>
<defs>
<clipPath id="clip0_16_27">
<rect width="14.4" height="14.4" fill="white" transform="translate(0.800018 0.800049)"/>
</clipPath>
</defs>
</svg>
