<svg width="28" height="33" viewBox="0 0 28 33" fill="none" xmlns="http://www.w3.org/2000/svg">
<path d="M26 14C26 23.3333 14 31.3333 14 31.3333C14 31.3333 2 23.3333 2 14C2 10.8174 3.26428 7.76515 5.51472 5.51472C7.76516 3.26428 10.8174 2 14 2C17.1826 2 20.2348 3.26428 22.4853 5.51472C24.7357 7.76515 26 10.8174 26 14Z" stroke="white" stroke-width="2.66667" stroke-linecap="round" stroke-linejoin="round"/>
<path d="M14.0002 18C16.2094 18 18.0002 16.2091 18.0002 14C18.0002 11.7909 16.2094 10 14.0002 10C11.7911 10 10.0002 11.7909 10.0002 14C10.0002 16.2091 11.7911 18 14.0002 18Z" stroke="white" stroke-width="2.66667" stroke-linecap="round" stroke-linejoin="round"/>
</svg>
