<svg width="200" height="72" viewBox="0 0 200 72" fill="none" xmlns="http://www.w3.org/2000/svg">
<path d="M200 33.7227H193.22V62.9761H200V33.7227Z" fill="white"/>
<path d="M188.776 33.7227V51.7267H181.996V40.5028H177.552V56.196H188.776V62.9761H148.273V56.196H159.523V40.5028H155.079V51.7267H148.273V33.7227H166.303V56.196H170.747V33.7227H188.776Z" fill="white"/>
<path d="M177.527 0H170.747V6.7801H177.527V0Z" fill="#939391"/>
<path d="M177.527 11.2493H170.747V18.0294H177.527V11.2493Z" fill="#939391"/>
<path d="M181.996 0V18.0295H193.22V22.4733H166.303V0H148.273V18.0295H159.497V22.4733H148.273V29.2534H200V0H181.996ZM155.079 11.2494V6.80548H159.523V11.2494H155.079ZM193.22 11.2494H188.776V6.80548H193.22V11.2494Z" fill="white"/>
<path d="M13.357 40.5047H13.9157H17.3692H17.9279H21.4068H21.9401H23.3367H23.8954H27.3489H27.9076H31.3865H31.9198H35.3987H35.9573H39.4109H39.9695H43.4485H43.9817H46.9782H48.0193H56.9325V37.6353H52.1839V34.2071H56.9325V31.2615H49.2636V37.6353H48.0193H46.9782H43.9817H43.4485H39.9695H39.4109H35.9573H35.3987H31.9198H31.3865H27.9076H27.3489H23.8954H23.3367H21.9401H21.4068H17.9279H17.3692H13.9157H13.357H10.4876H9.31946H8.40529V31.3884H0.203156V34.2579H5.53581V37.6353H0.203156V40.5047H9.31946H10.4876H13.357Z" fill="white"/>
<path d="M62.0874 25.6748H59.0401V40.5047H62.0874V25.6748Z" fill="white"/>
<path d="M82.9609 31.2615H75.2158V37.6353H74.5302H72.9812H72.5495V31.2615H64.195V40.5047H69.4515V42.6632H64.195V45.5327H72.5495V40.5047H72.9812H74.5302H82.9609V31.2615ZM67.0899 37.6353V34.2833H69.4515L69.4769 37.6607H67.0899V37.6353ZM80.1676 37.6353H77.806V34.1056H80.1676V37.6353Z" fill="white"/>
<path d="M77.1712 29.2808C77.2727 29.357 77.3743 29.4078 77.4759 29.4078C77.5775 29.4078 77.679 29.3824 77.7552 29.3062L78.8979 28.1635C79.2788 28.5444 79.6597 28.9253 80.0406 29.2808C80.1422 29.357 80.2438 29.4078 80.3454 29.4078C80.4469 29.4078 80.5485 29.3824 80.6247 29.3062L81.996 27.9603C82.0213 27.9095 82.0467 27.8588 82.0467 27.808C82.0467 27.7572 82.0213 27.7064 81.996 27.681C81.869 27.5286 81.6912 27.3509 81.5135 27.1477C81.3103 26.9446 81.1834 26.7922 81.1072 26.7161L80.8532 26.4621C80.5485 26.1828 80.3708 26.0812 80.2946 26.1828L79.9391 26.4875C79.8375 26.5637 79.7105 26.6907 79.5582 26.8684C79.4058 27.0208 79.2027 27.2239 78.9233 27.4779C78.7964 27.3509 78.6694 27.2239 78.5424 27.097C78.3901 26.9192 78.2885 26.7922 78.2123 26.7161L77.9584 26.4621C77.6536 26.1828 77.4759 26.0812 77.3997 26.1828L77.0442 26.4875C76.9172 26.5891 76.7395 26.7668 76.4601 27.0208C76.3332 27.1731 76.1554 27.3509 75.9269 27.554C75.8507 27.6302 75.7999 27.7318 75.8253 27.8588C75.8253 27.9857 75.8761 28.0873 75.9777 28.1889C76.4347 28.5444 76.8157 28.9253 77.1712 29.2808Z" fill="white"/>
<path d="M89.7918 29.2808C89.8933 29.357 89.9949 29.4078 90.0965 29.4078C90.1981 29.4078 90.2996 29.3824 90.3758 29.3062L91.5185 28.1635C91.8994 28.5444 92.2803 28.9253 92.6612 29.2808C92.7628 29.357 92.8644 29.4078 92.966 29.4078C93.0675 29.4078 93.1691 29.3824 93.2453 29.3062L94.6165 27.9603C94.6419 27.9095 94.6673 27.8588 94.6673 27.808C94.6673 27.7572 94.6419 27.7064 94.6165 27.681C94.4896 27.5286 94.3118 27.3509 94.1341 27.1477C93.9309 26.9446 93.804 26.7922 93.7278 26.7161L93.4738 26.4621C93.1691 26.1828 92.9914 26.0812 92.9152 26.1828L92.5597 26.4875C92.4581 26.5637 92.3311 26.6907 92.1788 26.8684C92.0264 27.0208 91.8233 27.2239 91.5439 27.4779C91.417 27.3509 91.29 27.2239 91.163 27.097C91.0107 26.9192 90.9091 26.7922 90.8329 26.7161L90.579 26.4621C90.2742 26.1828 90.0965 26.0812 90.0203 26.1828L89.6648 26.4875C89.5378 26.5891 89.3601 26.7668 89.0807 27.0208C88.9538 27.1731 88.776 27.3509 88.5475 27.554C88.4713 27.6302 88.4205 27.7318 88.4459 27.8588C88.4459 27.9857 88.4967 28.0873 88.5983 28.1889C89.0554 28.5444 89.4109 28.9253 89.7918 29.2808Z" fill="white"/>
<path d="M97.4352 40.5047H99.6191H100.863H114.804V32.5057H105.714L110.538 27.6555L108.278 25.5225L101.625 32.3533V35.3752H111.91V37.6352H100.889H99.6699H97.4606H96.3179H95.3783V31.2614H87.6333V40.5047H96.3179H97.4352ZM92.7374 37.6352H90.3758V34.1055H92.7374V37.6352Z" fill="white"/>
<path d="M131.056 27.4524C131.158 27.5286 131.26 27.5794 131.361 27.5794C131.463 27.5794 131.564 27.554 131.64 27.4778L133.012 26.1066C133.088 26.0304 133.088 25.9288 133.037 25.8526C132.961 25.7511 132.859 25.6241 132.732 25.4971C132.605 25.3702 132.478 25.2432 132.377 25.1162C132.25 24.9893 132.174 24.9131 132.123 24.8623L131.869 24.6084C131.564 24.329 131.387 24.2274 131.31 24.329L130.955 24.6338C130.777 24.7861 130.396 25.1416 129.837 25.7257C129.761 25.8019 129.711 25.9034 129.736 26.0304C129.736 26.1574 129.787 26.2589 129.888 26.3605L131.056 27.4524Z" fill="white"/>
<path d="M129.507 30.8553C129.609 30.9315 129.711 30.9822 129.812 30.9822C129.914 30.9822 130.015 30.9568 130.091 30.8807L131.26 29.7126C131.513 29.9919 131.767 30.2204 132.021 30.4744C132.148 30.6013 132.275 30.7283 132.402 30.8553C132.504 30.9315 132.605 30.9822 132.707 30.9822C132.809 30.9822 132.91 30.9568 132.986 30.8807L134.358 29.5094C134.434 29.4332 134.434 29.3317 134.358 29.2555C134.231 29.1031 134.053 28.9254 133.875 28.6968C133.672 28.4683 133.545 28.3159 133.469 28.2397L133.215 27.9858C132.91 27.7065 132.732 27.6049 132.656 27.7065L132.301 28.0112C132.123 28.1889 131.793 28.4937 131.285 29.0015L130.549 28.2397L130.295 27.9858C129.99 27.7065 129.812 27.6049 129.736 27.7065L129.38 28.0112C129.203 28.1635 128.822 28.5191 128.263 29.1031C128.187 29.1793 128.136 29.2809 128.162 29.4078C128.162 29.5348 128.212 29.6364 128.314 29.738L129.507 30.8553Z" fill="white"/>
<path d="M134.738 31.2615V37.6353H132.986V32.4804H129.863V37.6353H128.009V32.4804H125.038V37.6353H123.87H122.499H122.169V31.4646H119.071V42.5108H116.023V45.5327H122.169V40.5047H122.499H123.87H137.811V31.2615H134.738Z" fill="white"/>
<path d="M0 66.7872H7.74505V57.5439H0V66.7872ZM2.69172 60.388H5.05333V63.9177H2.69172V60.388Z" fill="white"/>
<path d="M2.08226 55.5379C2.18384 55.6141 2.28541 55.6649 2.38699 55.6649C2.48856 55.6649 2.59014 55.6395 2.66632 55.5633L3.80903 54.4206C4.18993 54.8015 4.57084 55.1824 4.95174 55.5379C5.05331 55.6141 5.15489 55.6649 5.25646 55.6649C5.35804 55.6649 5.45961 55.6395 5.53579 55.5633L6.90705 54.2174C6.93244 54.1666 6.95784 54.1158 6.95784 54.0651C6.95784 54.0143 6.93244 53.9635 6.90705 53.9381C6.78008 53.7857 6.60233 53.608 6.42457 53.4048C6.22142 53.2017 6.09445 53.0493 6.01827 52.9731L5.76434 52.7192C5.45961 52.4399 5.28186 52.3383 5.20568 52.4399L4.85017 52.7446C4.74859 52.8208 4.62163 52.9477 4.46926 53.1255C4.3169 53.2779 4.11375 53.481 3.83442 53.7349C3.70746 53.608 3.58049 53.481 3.45352 53.354C3.30116 53.1763 3.19958 53.0493 3.1234 52.9731L2.86947 52.7192C2.56474 52.4399 2.38699 52.3383 2.31081 52.4399L1.9553 52.7446C1.82833 52.8462 1.65057 53.0239 1.37124 53.2779C1.24428 53.4302 1.06652 53.608 0.837978 53.8111C0.761797 53.8873 0.711009 53.9889 0.736403 54.1158C0.736403 54.2428 0.78719 54.3444 0.888764 54.446C1.34585 54.8269 1.72675 55.2078 2.08226 55.5379Z" fill="white"/>
<path d="M9.9035 60.515H15.2362V63.9177H9.9035V66.7872H18.1056V57.6709H9.9035V60.515Z" fill="white"/>
<path d="M19.8578 66.7872H25.1143V68.9457H19.8578V71.8152H28.2123V57.5439H19.8578V66.7872ZM22.7527 60.5404H25.1143L25.1397 63.9177H22.7527V60.5404Z" fill="white"/>
<path d="M62.0112 63.9177H61.0462H59.6242H59.1163V57.5439H51.3713V63.9177H51.1173H49.3398H49.0858L42.128 56.7821L39.9187 58.7882L44.9467 63.9177H40.2489H38.1666V57.6708H29.9644V60.5403H35.2971V63.9431H29.9644V66.7871H38.1158H40.2489H49.3144H51.0919H59.6242H61.0462H65.0838V51.9573H62.0112V63.9177ZM56.3738 63.9177H54.0122V60.388H56.3738V63.9177Z" fill="white"/>
<path d="M70.1879 51.9573H67.1407V66.7871H70.1879V51.9573Z" fill="white"/>
<path d="M91.9248 68.7933C91.7217 68.5901 91.5947 68.4377 91.5186 68.3616L91.2646 68.1076C90.9599 67.8283 90.7821 67.7267 90.706 67.8283L90.3504 68.133C90.2489 68.2092 90.1219 68.3362 89.9695 68.5139C89.8172 68.6663 89.614 68.8694 89.3347 69.1234C89.2077 68.9964 89.0808 68.8694 88.9538 68.7425C88.8014 68.5647 88.6999 68.4377 88.6237 68.3616L88.3697 68.1076C88.065 67.8283 87.8873 67.7267 87.8111 67.8283L87.4556 68.133C87.3286 68.2346 87.1508 68.4124 86.8715 68.6663C86.7445 68.8187 86.5668 68.9964 86.3383 69.1996C86.2621 69.2757 86.2113 69.3773 86.2367 69.5043C86.2367 69.6312 86.2875 69.7328 86.389 69.8344C86.7699 70.2407 87.1508 70.6216 87.5318 70.9771C87.6333 71.0533 87.7349 71.1041 87.8365 71.1041C87.9381 71.1041 88.0396 71.0787 88.1158 71.0025L89.2585 69.8598C89.6394 70.2407 90.0203 70.6216 90.4012 70.9771C90.5028 71.0533 90.6044 71.1041 90.706 71.1041C90.8075 71.1041 90.9091 71.0787 90.9853 71.0025L92.3565 69.6566C92.3819 69.6058 92.4073 69.5551 92.4073 69.5043C92.4073 69.4535 92.3819 69.4027 92.3565 69.3773C92.2804 69.1742 92.1026 68.9964 91.9248 68.7933Z" fill="white"/>
<path d="M100.152 53.3032C100.025 53.1763 99.9492 53.1001 99.8984 53.0493L99.6445 52.7954C99.3398 52.516 99.162 52.4145 99.0858 52.516L98.7303 52.8208C98.6287 52.8969 98.5018 53.0493 98.324 53.2271C98.1463 53.4048 97.9177 53.6334 97.613 53.9127C97.5368 53.9889 97.486 54.0904 97.5114 54.2174C97.5114 54.3444 97.5622 54.4459 97.6638 54.5475C98.0447 54.9538 98.4256 55.3347 98.8065 55.6902C98.9081 55.7664 99.0096 55.8172 99.1112 55.8172C99.2128 55.8172 99.3144 55.7918 99.3906 55.7156L100.762 54.3444C100.838 54.2682 100.838 54.1666 100.787 54.0904C100.711 53.9889 100.609 53.8619 100.482 53.7349C100.381 53.5572 100.254 53.4302 100.152 53.3032Z" fill="white"/>
<path d="M114.297 51.2463C114.17 51.1194 114.093 51.0432 114.043 50.9924L113.789 50.7385C113.484 50.4591 113.306 50.3576 113.23 50.4592L112.875 50.7639C112.697 50.9162 112.316 51.2717 111.757 51.8558C111.681 51.932 111.63 52.0336 111.656 52.1605C111.656 52.2875 111.706 52.3891 111.808 52.4906L112.951 53.6334C113.052 53.7095 113.154 53.7603 113.255 53.7603C113.357 53.7603 113.459 53.7349 113.535 53.6587L114.906 52.2875C114.982 52.2113 114.982 52.1097 114.931 52.0336C114.855 51.932 114.754 51.805 114.627 51.678C114.551 51.5003 114.424 51.3733 114.297 51.2463Z" fill="white"/>
<path d="M114.576 53.8363L114.22 54.1411C114.043 54.3188 113.713 54.6235 113.205 55.1314L112.468 54.3696L112.214 54.1157C111.91 53.8363 111.732 53.7348 111.656 53.8363L111.3 54.1411C111.122 54.2934 110.741 54.6489 110.183 55.233C110.107 55.3092 110.056 55.4108 110.081 55.5377C110.081 55.6647 110.132 55.7663 110.234 55.8678L111.376 57.0105C111.478 57.0867 111.579 57.1375 111.681 57.1375C111.783 57.1375 111.884 57.1121 111.96 57.0359L113.128 55.8678C113.382 56.1472 113.636 56.3757 113.89 56.6296C114.017 56.7566 114.144 56.8836 114.271 57.0105C114.373 57.0867 114.474 57.1375 114.576 57.1375C114.677 57.1375 114.779 57.1121 114.855 57.0359L116.227 55.6647C116.303 55.5885 116.303 55.4869 116.227 55.4108C116.1 55.2584 115.922 55.0806 115.744 54.8521C115.541 54.6236 115.414 54.4712 115.338 54.395L115.084 54.1411C114.83 53.8364 114.652 53.7348 114.576 53.8363Z" fill="white"/>
<path d="M122.499 55.9695C122.6 56.0457 122.702 56.0965 122.803 56.0965C122.905 56.0965 123.007 56.0711 123.083 55.9949L124.225 54.8522C124.606 55.2331 124.987 55.614 125.368 55.9695C125.47 56.0457 125.571 56.0965 125.673 56.0965C125.774 56.0965 125.876 56.0711 125.952 55.9949L127.323 54.6491C127.349 54.5983 127.374 54.5475 127.374 54.4967C127.374 54.4459 127.349 54.3951 127.323 54.3697C127.197 54.2174 127.019 54.0396 126.841 53.8365C126.638 53.6333 126.511 53.481 126.435 53.4048L126.181 53.1508C125.876 52.8461 125.698 52.7699 125.622 52.8715L125.267 53.1762C125.165 53.2524 125.038 53.3794 124.886 53.5571C124.733 53.7095 124.53 53.9126 124.251 54.1666C124.124 54.0396 123.997 53.9126 123.87 53.7857C123.718 53.6079 123.616 53.481 123.54 53.4048L123.286 53.1508C122.981 52.8715 122.803 52.7699 122.727 52.8715L122.372 53.1762C122.245 53.2778 122.067 53.4556 121.788 53.7095C121.661 53.8619 121.483 54.0396 121.254 54.2428C121.178 54.3189 121.127 54.4205 121.153 54.5475C121.153 54.6745 121.204 54.776 121.305 54.8776C121.737 55.2585 122.118 55.614 122.499 55.9695Z" fill="white"/>
<path d="M129.406 63.9177H128.187H126.993H125.876V57.6962H122.88V63.9177H121.381H120.366H119.68V57.5439H116.607V63.9177H114.855V58.7628H111.732V63.9177H109.878V58.7628H106.907V63.9177H106.221H104.825H102.387L104.622 59.9563V57.5439H93.804V59.9563L96.0386 63.9177H93.2707H92.001H91.0615V57.5439H87.9634V63.9177H87.4556H85.4241H84.4083V51.9573H81.4119V67.0665H78.517V62.0385H75.4698V69.936H84.3829V66.7871H85.3987H87.4302H92.001H93.2707H104.799H106.196H120.366H121.381H126.993H128.187H132.453V51.9573H129.38V63.9177H129.406ZM99.2128 63.9177L97.5114 60.388H100.94L99.2128 63.9177Z" fill="white"/>
<path d="M137.583 51.9573H134.535V66.7871H137.583V51.9573Z" fill="white"/>
</svg>
