<svg width="240" height="87" viewBox="0 0 240 87" fill="none" xmlns="http://www.w3.org/2000/svg">
<path d="M240 40.4671H231.864V75.5712H240V40.4671Z" fill="#2B256D"/>
<path d="M226.531 40.4671V62.072H218.395V48.6032H213.062V67.4351H226.531V75.5712H177.928V67.4351H191.427V48.6032H186.094V62.072H177.928V40.4671H199.563V67.4351H204.896V40.4671H226.531Z" fill="#2B256D"/>
<path d="M213.032 -0.00012207H204.896V8.13599H213.032V-0.00012207Z" fill="#939391"/>
<path d="M213.032 13.499H204.896V21.6351H213.032V13.499Z" fill="#939391"/>
<path d="M218.395 -0.00012207V21.6352H231.864V26.9679H199.563V-0.00012207H177.928V21.6352H191.397V26.9679H177.928V35.104H240V-0.00012207H218.395ZM186.094 13.4991V8.16646H191.427V13.4991H186.094ZM231.864 13.4991H226.531V8.16646H231.864V13.4991Z" fill="#2B256D"/>
<path d="M16.0284 48.6058H16.6988H20.8431H21.5135H25.6882H26.3281H28.0041H28.6744H32.8187H33.4891H37.6638H38.3037H42.4784H43.1488H47.293H47.9634H52.1381H52.7781H56.3738H57.6231H68.3189V45.1624H62.6206V41.0486H68.3189V37.5139H59.1163V45.1624H57.6231H56.3738H52.7781H52.1381H47.9634H47.293H43.1488H42.4784H38.3037H37.6638H33.4891H32.8187H28.6744H28.0041H26.3281H25.6882H21.5135H20.8431H16.6988H16.0284H12.5851H11.1833H10.0863V37.6662H0.243774V41.1096H6.64296V45.1624H0.243774V48.6058H11.1833H12.5851H16.0284Z" fill="#2B256D"/>
<path d="M74.5048 30.8099H70.8481V48.6058H74.5048V30.8099Z" fill="#2B256D"/>
<path d="M99.5531 37.5139H90.259V45.1624H89.4363H87.5775H87.0594V37.5139H77.034V48.6058H83.3418V51.1959H77.034V54.6393H87.0594V48.6058H87.5775H89.4363H99.5531V37.5139ZM80.5079 45.1624V41.1401H83.3418L83.3723 45.1929H80.5079V45.1624ZM96.2011 45.1624H93.3672V40.9267H96.2011V45.1624Z" fill="#2B256D"/>
<path d="M92.6054 35.137C92.7273 35.2284 92.8492 35.2893 92.971 35.2893C93.0929 35.2893 93.2148 35.2589 93.3062 35.1675L94.6775 33.7962C95.1346 34.2533 95.5917 34.7104 96.0488 35.137C96.1706 35.2284 96.2925 35.2893 96.4144 35.2893C96.5363 35.2893 96.6582 35.2589 96.7496 35.1675L98.3951 33.5524C98.4256 33.4915 98.4561 33.4305 98.4561 33.3696C98.4561 33.3086 98.4256 33.2477 98.3951 33.2172C98.2428 33.0344 98.0295 32.8211 97.8162 32.5773C97.5724 32.3335 97.42 32.1507 97.3286 32.0593L97.0239 31.7546C96.6582 31.4194 96.4449 31.2975 96.3535 31.4194L95.9269 31.785C95.805 31.8764 95.6526 32.0288 95.4698 32.2421C95.2869 32.4249 95.0432 32.6687 94.708 32.9735C94.5556 32.8211 94.4033 32.6687 94.2509 32.5164C94.0681 32.3031 93.9462 32.1507 93.8548 32.0593L93.55 31.7546C93.1844 31.4194 92.9711 31.2975 92.8796 31.4194L92.453 31.785C92.3007 31.9069 92.0874 32.1202 91.7522 32.4249C91.5998 32.6078 91.3865 32.8211 91.1122 33.0649C91.0208 33.1563 90.9599 33.2782 90.9903 33.4305C90.9903 33.5829 91.0513 33.7048 91.1732 33.8267C91.7217 34.2533 92.1788 34.7104 92.6054 35.137Z" fill="#2B256D"/>
<path d="M107.75 35.137C107.872 35.2284 107.994 35.2893 108.116 35.2893C108.238 35.2893 108.36 35.2589 108.451 35.1675L109.822 33.7962C110.279 34.2533 110.736 34.7104 111.194 35.137C111.315 35.2284 111.437 35.2893 111.559 35.2893C111.681 35.2893 111.803 35.2589 111.894 35.1675L113.54 33.5524C113.57 33.4915 113.601 33.4305 113.601 33.3696C113.601 33.3086 113.57 33.2477 113.54 33.2172C113.388 33.0344 113.174 32.8211 112.961 32.5773C112.717 32.3335 112.565 32.1507 112.473 32.0593L112.169 31.7546C111.803 31.4194 111.59 31.2975 111.498 31.4194L111.072 31.785C110.95 31.8764 110.797 32.0288 110.615 32.2421C110.432 32.4249 110.188 32.6687 109.853 32.9735C109.7 32.8211 109.548 32.6687 109.396 32.5164C109.213 32.3031 109.091 32.1507 108.999 32.0593L108.695 31.7546C108.329 31.4194 108.116 31.2975 108.024 31.4194L107.598 31.785C107.445 31.9069 107.232 32.1202 106.897 32.4249C106.745 32.6078 106.531 32.8211 106.257 33.0649C106.166 33.1563 106.105 33.2782 106.135 33.4305C106.135 33.5829 106.196 33.7048 106.318 33.8267C106.866 34.2533 107.293 34.7104 107.75 35.137Z" fill="#2B256D"/>
<path d="M116.922 48.6057H119.543H121.036H137.765V39.007H126.856L132.646 33.1867L129.934 30.6271L121.95 38.8241V42.4503H134.292V45.1624H121.067H119.604H116.953H115.582H114.454V37.5138H105.16V48.6057H115.582H116.922ZM111.285 45.1624H108.451V40.9267H111.285V45.1624Z" fill="#2B256D"/>
<path d="M157.268 32.943C157.39 33.0344 157.511 33.0953 157.633 33.0953C157.755 33.0953 157.877 33.0649 157.969 32.9735L159.614 31.3279C159.705 31.2365 159.705 31.1146 159.644 31.0232C159.553 30.9013 159.431 30.749 159.279 30.5966C159.126 30.4442 158.974 30.2919 158.852 30.1395C158.7 29.9872 158.608 29.8957 158.548 29.8348L158.243 29.5301C157.877 29.1949 157.664 29.073 157.572 29.1949L157.146 29.5605C156.932 29.7434 156.475 30.17 155.805 30.8709C155.714 30.9623 155.653 31.0842 155.683 31.2365C155.683 31.3889 155.744 31.5108 155.866 31.6327L157.268 32.943Z" fill="#2B256D"/>
<path d="M155.409 37.0263C155.531 37.1177 155.653 37.1787 155.775 37.1787C155.896 37.1787 156.018 37.1482 156.11 37.0568L157.511 35.655C157.816 35.9902 158.121 36.2645 158.426 36.5692C158.578 36.7216 158.73 36.8739 158.883 37.0263C159.005 37.1177 159.126 37.1787 159.248 37.1787C159.37 37.1787 159.492 37.1482 159.584 37.0568L161.229 35.4113C161.32 35.3199 161.32 35.198 161.229 35.1065C161.077 34.9237 160.863 34.7104 160.65 34.4362C160.406 34.1619 160.254 33.9791 160.163 33.8877L159.858 33.5829C159.492 33.2477 159.279 33.1258 159.187 33.2477L158.761 33.6134C158.547 33.8267 158.151 34.1924 157.542 34.8018L156.658 33.8877L156.353 33.5829C155.988 33.2477 155.775 33.1258 155.683 33.2477L155.256 33.6134C155.043 33.7962 154.586 34.2228 153.916 34.9237C153.824 35.0151 153.763 35.137 153.794 35.2894C153.794 35.4417 153.855 35.5636 153.977 35.6855L155.409 37.0263Z" fill="#2B256D"/>
<path d="M161.686 37.5139V45.1624H159.584V38.9765H155.835V45.1624H153.611V38.9765H150.046V45.1624H148.644H146.998H146.602V37.7576H142.885V51.0131H139.228V54.6393H146.602V48.6058H146.998H148.644H165.373V37.5139H161.686Z" fill="#2B256D"/>
<path d="M0 80.1446H9.29406V69.0527H0V80.1446ZM3.23007 72.4656H6.06399V76.7012H3.23007V72.4656Z" fill="#2B256D"/>
<path d="M2.49872 66.6454C2.62061 66.7368 2.7425 66.7977 2.86439 66.7977C2.98628 66.7977 3.10817 66.7672 3.19959 66.6758L4.57084 65.3046C5.02792 65.7617 5.48501 66.2187 5.94209 66.6454C6.06398 66.7368 6.18587 66.7977 6.30776 66.7977C6.42965 66.7977 6.55154 66.7672 6.64296 66.6758L8.28846 65.0608C8.31893 64.9998 8.34941 64.9389 8.34941 64.878C8.34941 64.817 8.31893 64.7561 8.28846 64.7256C8.1361 64.5428 7.9228 64.3295 7.70949 64.0857C7.46571 63.8419 7.31335 63.6591 7.22193 63.5676L6.91721 63.2629C6.55154 62.9277 6.33823 62.8058 6.24682 62.9277L5.82021 63.2934C5.69832 63.3848 5.54596 63.5372 5.36312 63.7505C5.18029 63.9333 4.93651 64.1771 4.60131 64.4818C4.44895 64.3294 4.29659 64.1771 4.14423 64.0247C3.9614 63.8114 3.8395 63.6591 3.74809 63.5676L3.44336 63.2629C3.0777 62.9277 2.86439 62.8058 2.77297 62.9277L2.34636 63.2934C2.194 63.4153 1.98069 63.6286 1.6455 63.9333C1.49314 64.1161 1.27983 64.3295 1.00558 64.5732C0.914162 64.6647 0.853217 64.7865 0.88369 64.9389C0.88369 65.0913 0.944634 65.2132 1.06652 65.335C1.61502 65.7921 2.07211 66.2492 2.49872 66.6454Z" fill="#2B256D"/>
<path d="M11.8842 72.6179H18.2834V76.7012H11.8842V80.1446H21.7268V69.205H11.8842V72.6179Z" fill="#2B256D"/>
<path d="M23.8294 80.1446H30.1372V82.7348H23.8294V86.1781H33.8548V69.0527H23.8294V80.1446ZM27.3032 72.6484H30.1372L30.1676 76.7012H27.3032V72.6484Z" fill="#2B256D"/>
<path d="M74.4134 76.7012H73.2555H71.549H70.9396V69.0527H61.6455V76.7012H61.3408H59.2077H58.903L50.5536 68.1385L47.9025 70.5458L53.936 76.7012H48.2986H45.7999V69.205H35.9573V72.6484H42.3565V76.7317H35.9573V80.1446H45.739H48.2986H59.1772H61.3103H71.549H73.2555H78.1006V62.3488H74.4134V76.7012ZM67.6486 76.7012H64.8146V72.4656H67.6486V76.7012Z" fill="#2B256D"/>
<path d="M84.2255 62.3488H80.5688V80.1446H84.2255V62.3488Z" fill="#2B256D"/>
<path d="M110.31 82.5519C110.066 82.3082 109.914 82.1253 109.822 82.0339L109.518 81.7292C109.152 81.394 108.939 81.2721 108.847 81.394L108.421 81.7596C108.299 81.8511 108.146 82.0034 107.963 82.2167C107.781 82.3996 107.537 82.6433 107.202 82.9481C107.049 82.7957 106.897 82.6433 106.745 82.491C106.562 82.2777 106.44 82.1253 106.348 82.0339L106.044 81.7292C105.678 81.394 105.465 81.2721 105.373 81.394L104.947 81.7596C104.794 81.8815 104.581 82.0949 104.246 82.3996C104.093 82.5824 103.88 82.7957 103.606 83.0395C103.514 83.1309 103.454 83.2528 103.484 83.4052C103.484 83.5575 103.545 83.6794 103.667 83.8013C104.124 84.2889 104.581 84.7459 105.038 85.1725C105.16 85.264 105.282 85.3249 105.404 85.3249C105.526 85.3249 105.648 85.2944 105.739 85.203L107.11 83.8318C107.567 84.2888 108.024 84.7459 108.481 85.1725C108.603 85.264 108.725 85.3249 108.847 85.3249C108.969 85.3249 109.091 85.2944 109.182 85.203L110.828 83.588C110.858 83.527 110.889 83.4661 110.889 83.4052C110.889 83.3442 110.858 83.2833 110.828 83.2528C110.736 83.009 110.523 82.7957 110.31 82.5519Z" fill="#2B256D"/>
<path d="M120.183 63.9638C120.03 63.8114 119.939 63.72 119.878 63.6591L119.573 63.3544C119.208 63.0192 118.994 62.8973 118.903 63.0192L118.476 63.3848C118.355 63.4762 118.202 63.6591 117.989 63.8724C117.776 64.0857 117.501 64.3599 117.136 64.6951C117.044 64.7866 116.983 64.9084 117.014 65.0608C117.014 65.2132 117.075 65.3351 117.197 65.4569C117.654 65.9445 118.111 66.4016 118.568 66.8282C118.69 66.9196 118.812 66.9806 118.933 66.9806C119.055 66.9806 119.177 66.9501 119.269 66.8587L120.914 65.2132C121.006 65.1217 121.006 64.9999 120.945 64.9084C120.853 64.7866 120.731 64.6342 120.579 64.4818C120.457 64.2685 120.305 64.1162 120.183 63.9638Z" fill="#2B256D"/>
<path d="M137.156 61.4955C137.004 61.3432 136.912 61.2518 136.851 61.1908L136.546 60.8861C136.181 60.5509 135.967 60.429 135.876 60.5509L135.449 60.9166C135.236 61.0994 134.779 61.526 134.109 62.2269C134.017 62.3183 133.956 62.4402 133.987 62.5925C133.987 62.7449 134.048 62.8668 134.17 62.9887L135.541 64.3599C135.663 64.4514 135.785 64.5123 135.907 64.5123C136.028 64.5123 136.15 64.4818 136.242 64.3904L137.887 62.7449C137.979 62.6535 137.979 62.5316 137.918 62.4402C137.826 62.3183 137.704 62.1659 137.552 62.0136C137.461 61.8003 137.308 61.6479 137.156 61.4955Z" fill="#2B256D"/>
<path d="M137.491 64.6037L137.065 64.9694C136.851 65.1827 136.455 65.5483 135.846 66.1578L134.962 65.2436L134.657 64.9389C134.292 64.6037 134.078 64.4818 133.987 64.6037L133.56 64.9694C133.347 65.1522 132.89 65.5788 132.219 66.2797C132.128 66.3711 132.067 66.493 132.098 66.6453C132.098 66.7977 132.158 66.9196 132.28 67.0415L133.652 68.4127C133.773 68.5041 133.895 68.5651 134.017 68.5651C134.139 68.5651 134.261 68.5346 134.352 68.4432L135.754 67.0415C136.059 67.3767 136.364 67.6509 136.668 67.9556C136.821 68.108 136.973 68.2604 137.125 68.4127C137.247 68.5041 137.369 68.5651 137.491 68.5651C137.613 68.5651 137.735 68.5346 137.826 68.4432L139.472 66.7977C139.563 66.7063 139.563 66.5844 139.472 66.493C139.319 66.3101 139.106 66.0968 138.893 65.8226C138.649 65.5483 138.497 65.3655 138.405 65.2741L138.101 64.9694C137.796 64.6037 137.583 64.4818 137.491 64.6037Z" fill="#2B256D"/>
<path d="M146.998 67.1634C147.12 67.2548 147.242 67.3158 147.364 67.3158C147.486 67.3158 147.608 67.2853 147.699 67.1939L149.071 65.8226C149.528 66.2797 149.985 66.7368 150.442 67.1634C150.564 67.2548 150.686 67.3158 150.807 67.3158C150.929 67.3158 151.051 67.2853 151.143 67.1939L152.788 65.5789C152.819 65.5179 152.849 65.457 152.849 65.396C152.849 65.3351 152.819 65.2741 152.788 65.2437C152.636 65.0608 152.423 64.8475 152.209 64.6037C151.965 64.36 151.813 64.1771 151.722 64.0857L151.417 63.781C151.051 63.4153 150.838 63.3239 150.747 63.4458L150.32 63.8115C150.198 63.9029 150.046 64.0552 149.863 64.2686C149.68 64.4514 149.436 64.6952 149.101 64.9999C148.949 64.8475 148.796 64.6952 148.644 64.5428C148.461 64.3295 148.339 64.1771 148.248 64.0857L147.943 63.781C147.577 63.4458 147.364 63.3239 147.273 63.4458L146.846 63.8115C146.694 63.9334 146.48 64.1467 146.145 64.4514C145.993 64.6342 145.78 64.8475 145.505 65.0913C145.414 65.1827 145.353 65.3046 145.383 65.457C145.383 65.6093 145.444 65.7312 145.566 65.8531C146.084 66.3102 146.541 66.7368 146.998 67.1634Z" fill="#2B256D"/>
<path d="M155.287 76.7012H153.824H152.392H151.051V69.2355H147.456V76.7012H145.658H144.439H143.616V69.0527H139.929V76.7012H137.826V70.5154H134.078V76.7012H131.854V70.5154H128.288V76.7012H127.466H125.79H122.864L125.546 71.9475V69.0527H112.565V71.9475L115.246 76.7012H111.925H110.401H109.274V69.0527H105.556V76.7012H104.947H102.509H101.29V62.3488H97.6943V80.4798H94.2204V74.4463H90.5638V83.9232H101.26V80.1446H102.478H104.916H110.401H111.925H125.759H127.435H144.439H145.658H152.392H153.824H158.944V62.3488H155.257V76.7012H155.287ZM119.055 76.7012L117.014 72.4656H121.127L119.055 76.7012Z" fill="#2B256D"/>
<path d="M165.099 62.3488H161.442V80.1446H165.099V62.3488Z" fill="#2B256D"/>
</svg>
