<svg width="65" height="79" viewBox="0 0 65 79" fill="none" xmlns="http://www.w3.org/2000/svg">
<path d="M64.5 42.2529H56.1112V78.4473H64.5V42.2529Z" fill="#2B256D"/>
<path d="M50.6129 42.2529V64.5288H42.2241V50.6417H36.7258V70.0585H50.6129V78.4473H0.499992V70.0585H14.4185V50.6417H8.92023V64.5288H0.499992V42.2529H22.8073V70.0585H28.3056V42.2529H50.6129Z" fill="#2B256D"/>
<path d="M36.6944 0.528809H28.3056V8.91762H36.6944V0.528809Z" fill="#939391"/>
<path d="M36.6944 14.4473H28.3056V22.8361H36.6944V14.4473Z" fill="#939391"/>
<path d="M42.2241 0.528809V22.8361H56.1112V28.3344H22.8073V0.528809H0.5V22.8361H14.3871V28.3344H0.5V36.7232H64.5V0.528809H42.2241ZM8.92024 14.4473V8.94903H14.4185V14.4473H8.92024ZM56.1112 14.4473H50.6129V8.94903H56.1112V14.4473Z" fill="#2B256D"/>
</svg>
