<svg width="48" height="48" viewBox="0 0 48 48" fill="none" xmlns="http://www.w3.org/2000/svg">
<g clip-path="url(#clip0_26_23)">
<path d="M36.6562 14.9062V0.84375H0V26.1562H5.71875V33.0564L11.3438 29.1691V40.2188H32.2969L42.2812 47.1189V40.2188H48V14.9062H36.6562ZM2.8125 23.3438V3.65625H33.8438V23.3438H14.8257L8.53125 27.694V23.3438H2.8125ZM45.1875 37.4062H39.4688V41.7565L33.1743 37.4062H14.1562V27.2252L15.7031 26.1562H36.6562V17.7188H45.1875V37.4062Z" fill="#2B256D"/>
<path d="M8.53125 9.28125H28.2188V12.0938H8.53125V9.28125Z" fill="#2B256D"/>
<path d="M8.53125 14.9062H28.2188V17.7188H8.53125V14.9062Z" fill="#2B256D"/>
<path d="M19.7812 28.9688H39.4688V31.7812H19.7812V28.9688Z" fill="#2B256D"/>
</g>
<defs>
<clipPath id="clip0_26_23">
<rect width="48" height="48" fill="white"/>
</clipPath>
</defs>
</svg>
