<svg width="48" height="49" viewBox="0 0 48 49" fill="none" xmlns="http://www.w3.org/2000/svg">
<g clip-path="url(#clip0_27_45)">
<mask id="mask0_27_45" style="mask-type:luminance" maskUnits="userSpaceOnUse" x="0" y="0" width="48" height="49">
<path d="M-1.14441e-05 0.500008H48V48.5H-1.14441e-05V0.500008Z" fill="white"/>
</mask>
<g mask="url(#mask0_27_45)">
<path d="M36.2328 24.5C36.2328 31.256 30.756 36.7328 24 36.7328C17.2439 36.7328 11.7672 31.256 11.7672 24.5C11.7672 17.744 17.2439 12.2672 24 12.2672C30.756 12.2672 36.2328 17.744 36.2328 24.5Z" stroke="#2B256D" stroke-width="2.8125" stroke-miterlimit="10"/>
<path d="M42.7812 24.5C42.7812 34.8726 34.3726 43.2812 24 43.2812C13.6274 43.2812 5.2187 34.8726 5.2187 24.5C5.2187 14.1274 13.6274 5.71882 24 5.71882C34.3726 5.71882 42.7812 14.1274 42.7812 24.5Z" stroke="#2B256D" stroke-width="2.8125" stroke-miterlimit="10"/>
<path d="M24 0.500008V48.5" stroke="#2B256D" stroke-width="2.8125" stroke-miterlimit="10"/>
<path d="M48 24.5H-1.14441e-05" stroke="#2B256D" stroke-width="2.8125" stroke-miterlimit="10"/>
</g>
</g>
<defs>
<clipPath id="clip0_27_45">
<rect width="48" height="48" fill="white" transform="translate(0 0.5)"/>
</clipPath>
</defs>
</svg>
